<?xml version="1.0" encoding="UTF-8"?>
<svg id="Layer_2" xmlns="http://www.w3.org/2000/svg" viewBox="0 0 800 800">
  <defs>
    <style>
      .cls-1 {
        fill: #fff;
      }

      .cls-2 {
        fill: #7c81bc;
      }
    </style>
  </defs>
  <g id="Layer_1-2" data-name="Layer_1">
    <circle class="cls-1" cx="401.5" cy="398.5" r="398.5"/>
    <path class="cls-2" d="M141.75,141.75c68.98-68.98,160.69-106.97,258.25-106.97s189.27,37.99,258.25,106.97c68.98,68.98,106.97,160.69,106.97,258.25s-37.99,189.27-106.97,258.25c-68.98,68.98-160.69,106.97-258.25,106.97s-189.27-37.99-258.25-106.97c-68.98-68.98-106.97-160.69-106.97-258.25s37.99-189.27,106.97-258.25h0ZM400,800c220.91,0,400-179.09,400-400S620.91,0,400,0,0,179.09,0,400s179.09,400,400,400h0Z"/>
    <path class="cls-2" d="M217.19,297.01c-17.77-20.77-21.7-49.1-10.27-73.93,11.43-24.83,35.52-40.25,62.85-40.25h236.47c30.62,0,57.95,20.54,66.47,49.96l17.04,58.85c6.05,20.91-5.99,42.77-26.9,48.83-20.91,6.05-42.77-5.99-48.83-26.9l-15.02-51.89h-208.29l90.26,105.52c12.69,14.83,12.61,36.71-.17,51.45l-90.72,104.61h198.06l21.34-48.38c8.79-19.92,32.06-28.94,51.98-20.15,19.92,8.79,28.94,32.06,20.16,51.98l-23.88,54.13c-11.06,25.07-35.91,41.27-63.31,41.27h-225.47c-27.44,0-51.56-15.5-62.95-40.46-11.39-24.96-7.3-53.34,10.67-74.07l82.32-94.92-81.8-95.63h0ZM400,730.43c88.26,0,171.24-34.37,233.65-96.78,62.41-62.41,96.78-145.39,96.78-233.65s-34.37-171.24-96.78-233.65c-62.41-62.41-145.39-96.78-233.65-96.78s-171.24,34.37-233.65,96.78c-62.41,62.41-96.78,145.39-96.78,233.65s34.37,171.24,96.78,233.65c62.41,62.41,145.39,96.78,233.65,96.78h0Z"/>
  </g>
</svg>