<svg xmlns="http://www.w3.org/2000/svg" xmlns:xlink="http://www.w3.org/1999/xlink" width="500" zoomAndPan="magnify" viewBox="0 0 375 599.999999" height="800" preserveAspectRatio="xMidYMid meet" version="1.0"><defs><clipPath id="2b2ecc5a4d"><path d="M 187 112.5 L 375 112.5 L 375 207 L 187 207 Z M 187 112.5 " clip-rule="nonzero"/></clipPath><clipPath id="bb5caed03a"><path d="M 93 112.5 L 282 112.5 L 282 300 L 93 300 Z M 93 112.5 " clip-rule="nonzero"/></clipPath><clipPath id="3849a7f340"><path d="M 0 112.5 L 188 112.5 L 188 207 L 0 207 Z M 0 112.5 " clip-rule="nonzero"/></clipPath><clipPath id="d7cfc5a524"><path d="M 93 300 L 282 300 L 282 487.5 L 93 487.5 Z M 93 300 " clip-rule="nonzero"/></clipPath><clipPath id="943839b176"><path d="M 0 393 L 188 393 L 188 487.5 L 0 487.5 Z M 0 393 " clip-rule="nonzero"/></clipPath><clipPath id="5c036c5e9c"><path d="M 187 393 L 375 393 L 375 487.5 L 187 487.5 Z M 187 393 " clip-rule="nonzero"/></clipPath></defs><g clip-path="url(#2b2ecc5a4d)"><path fill="#aadbcc" d="M 281.238281 206.238281 L 187.5 112.5 L 375 112.5 Z M 281.238281 206.238281 " fill-opacity="1" fill-rule="evenodd"/></g><g clip-path="url(#bb5caed03a)"><path fill="#6aa7ac" d="M 187.5 112.5 L 281.238281 206.238281 L 187.5 300 L 93.761719 206.238281 Z M 187.5 112.5 " fill-opacity="1" fill-rule="evenodd"/></g><g clip-path="url(#3849a7f340)"><path fill="#77b7b1" d="M 187.5 112.5 L 93.761719 206.238281 L 0 112.5 Z M 187.5 112.5 " fill-opacity="1" fill-rule="evenodd"/></g><path fill="#62a7cd" d="M 187.5 300 L 281.238281 206.238281 L 375 300 L 281.238281 393.738281 Z M 187.5 300 " fill-opacity="1" fill-rule="evenodd"/><g clip-path="url(#d7cfc5a524)"><path fill="#1e8bbe" d="M 187.5 300 L 281.238281 393.738281 L 187.5 487.5 L 93.738281 393.738281 Z M 187.5 300 " fill-opacity="1" fill-rule="evenodd"/></g><g clip-path="url(#943839b176)"><path fill="#4194cf" d="M 93.738281 393.738281 L 187.5 487.5 L 0 487.5 Z M 93.738281 393.738281 " fill-opacity="1" fill-rule="evenodd"/></g><g clip-path="url(#5c036c5e9c)"><path fill="#407fc1" d="M 187.5 487.5 L 281.238281 393.738281 L 375 487.5 Z M 187.5 487.5 " fill-opacity="1" fill-rule="evenodd"/></g></svg>