<svg version="1.2" xmlns="http://www.w3.org/2000/svg" viewBox="0 0 500 500" width="500" height="500">
	<title>New Project</title>
	<style>
		.s0 { fill: #ffffff } 
		.s1 { fill: #131315 } 
	</style>
	<path id="图层 1" class="s0" d="m250 500c-138.3 0-250-111.8-250-250 0-138.3 111.8-250 250-250 138.3 0 250 111.8 250 250 0 138.3-111.8 250-250 250z"/>
	<path class="s1" d="m113.6 237.7h39l24.6-75.4 24.7 75.4h38.9l43.7-135.7h-41.1l-9.5 30.3-14 43.4-24-73.7h-37.3l-10.1 30.3-13.7 42.2-13.8-42.2-9.5-30.3h-41.5z"/>
	<path class="s1" d="m101.1 393.1h40v-71l26.9 37.8h26.2l26.8-37.6v70.8h40v-140h-32.8l-47.2 66.6-46.9-66.6h-33z"/>
	<path class="s1" d="m429.5 177.2c0-38.5-23.4-67.7-59-73.7v41c13.2 4.9 21.6 16.7 21.6 31.9 0 19.6-14.6 33.2-35.5 33.2-21.2 0-35.6-13.8-35.6-33.6 0-14.6 8.2-26.8 20.8-31v-40.7c-35.4 7.2-58.2 36-58.2 73.3 0 43.2 29.8 73 73 73 43.1 0 72.9-29.8 72.9-73.4z"/>
	<path class="s1" d="m424.4 398.4v-40h-71.4l71.4-53.2v-32.8h-139.9v39.8h70.9l-70.9 53.2v33z"/>
</svg>