<svg xmlns="http://www.w3.org/2000/svg" xmlns:xlink="http://www.w3.org/1999/xlink" width="500" zoomAndPan="magnify" viewBox="0 0 375 675.000002" height="900" preserveAspectRatio="xMidYMid meet" version="1.0"><defs><clipPath id="a9b8a4c1a1"><path d="M 187 149.777344 L 374.722656 149.777344 L 374.722656 244 L 187 244 Z M 187 149.777344 " clip-rule="nonzero"/></clipPath><clipPath id="56da0c48f6"><path d="M 93 149.777344 L 282 149.777344 L 282 337 L 93 337 Z M 93 149.777344 " clip-rule="nonzero"/></clipPath><clipPath id="509b439d7a"><path d="M 0.277344 149.777344 L 188 149.777344 L 188 244 L 0.277344 244 Z M 0.277344 149.777344 " clip-rule="nonzero"/></clipPath><clipPath id="78b28b1e4a"><path d="M 187 243 L 374.722656 243 L 374.722656 431 L 187 431 Z M 187 243 " clip-rule="nonzero"/></clipPath><clipPath id="cc7976848e"><path d="M 93 337 L 282 337 L 282 524.222656 L 93 524.222656 Z M 93 337 " clip-rule="nonzero"/></clipPath><clipPath id="32f9be5d86"><path d="M 0.277344 430 L 188 430 L 188 524.222656 L 0.277344 524.222656 Z M 0.277344 430 " clip-rule="nonzero"/></clipPath><clipPath id="0bd0315ee9"><path d="M 187 430 L 374.722656 430 L 374.722656 524.222656 L 187 524.222656 Z M 187 430 " clip-rule="nonzero"/></clipPath></defs><g clip-path="url(#a9b8a4c1a1)"><path fill="#aadbcc" d="M 281.097656 243.378906 L 187.5 149.777344 L 374.722656 149.777344 Z M 281.097656 243.378906 " fill-opacity="1" fill-rule="evenodd"/></g><g clip-path="url(#56da0c48f6)"><path fill="#6aa7ac" d="M 187.5 149.777344 L 281.097656 243.378906 L 187.5 337 L 93.902344 243.378906 Z M 187.5 149.777344 " fill-opacity="1" fill-rule="evenodd"/></g><g clip-path="url(#509b439d7a)"><path fill="#77b7b1" d="M 187.5 149.777344 L 93.902344 243.378906 L 0.277344 149.777344 Z M 187.5 149.777344 " fill-opacity="1" fill-rule="evenodd"/></g><g clip-path="url(#78b28b1e4a)"><path fill="#62a7cd" d="M 187.5 337 L 281.097656 243.378906 L 374.722656 337 L 281.097656 430.601562 Z M 187.5 337 " fill-opacity="1" fill-rule="evenodd"/></g><g clip-path="url(#cc7976848e)"><path fill="#1e8bbe" d="M 187.5 337 L 281.097656 430.601562 L 187.5 524.222656 L 93.875 430.601562 Z M 187.5 337 " fill-opacity="1" fill-rule="evenodd"/></g><g clip-path="url(#32f9be5d86)"><path fill="#4194cf" d="M 93.875 430.601562 L 187.5 524.222656 L 0.277344 524.222656 Z M 93.875 430.601562 " fill-opacity="1" fill-rule="evenodd"/></g><g clip-path="url(#0bd0315ee9)"><path fill="#407fc1" d="M 187.5 524.222656 L 281.097656 430.601562 L 374.722656 524.222656 Z M 187.5 524.222656 " fill-opacity="1" fill-rule="evenodd"/></g></svg>