<svg xmlns="http://www.w3.org/2000/svg" xmlns:xlink="http://www.w3.org/1999/xlink" width="500" zoomAndPan="magnify" viewBox="0 0 375 449.999984" height="600" preserveAspectRatio="xMidYMid meet" version="1.0"><defs><clipPath id="a95f286aad"><path d="M 187 37.5 L 375 37.5 L 375 132 L 187 132 Z M 187 37.5 " clip-rule="nonzero"/></clipPath><clipPath id="1c3102fa07"><path d="M 93 37.5 L 282 37.5 L 282 225 L 93 225 Z M 93 37.5 " clip-rule="nonzero"/></clipPath><clipPath id="fcf8ad6f31"><path d="M 0 37.5 L 188 37.5 L 188 132 L 0 132 Z M 0 37.5 " clip-rule="nonzero"/></clipPath><clipPath id="cb1d9fd531"><path d="M 93 225 L 282 225 L 282 412.5 L 93 412.5 Z M 93 225 " clip-rule="nonzero"/></clipPath><clipPath id="807df36746"><path d="M 0 318 L 188 318 L 188 412.5 L 0 412.5 Z M 0 318 " clip-rule="nonzero"/></clipPath><clipPath id="05e012ae0e"><path d="M 187 318 L 375 318 L 375 412.5 L 187 412.5 Z M 187 318 " clip-rule="nonzero"/></clipPath></defs><g clip-path="url(#a95f286aad)"><path fill="#aadbcc" d="M 281.238281 131.238281 L 187.5 37.5 L 375 37.5 Z M 281.238281 131.238281 " fill-opacity="1" fill-rule="evenodd"/></g><g clip-path="url(#1c3102fa07)"><path fill="#6aa7ac" d="M 187.5 37.5 L 281.238281 131.238281 L 187.5 225 L 93.761719 131.238281 Z M 187.5 37.5 " fill-opacity="1" fill-rule="evenodd"/></g><g clip-path="url(#fcf8ad6f31)"><path fill="#77b7b1" d="M 187.5 37.5 L 93.761719 131.238281 L 0 37.5 Z M 187.5 37.5 " fill-opacity="1" fill-rule="evenodd"/></g><path fill="#62a7cd" d="M 187.5 225 L 281.238281 131.238281 L 375 225 L 281.238281 318.738281 Z M 187.5 225 " fill-opacity="1" fill-rule="evenodd"/><g clip-path="url(#cb1d9fd531)"><path fill="#1e8bbe" d="M 187.5 225 L 281.238281 318.738281 L 187.5 412.5 L 93.738281 318.738281 Z M 187.5 225 " fill-opacity="1" fill-rule="evenodd"/></g><g clip-path="url(#807df36746)"><path fill="#4194cf" d="M 93.738281 318.738281 L 187.5 412.5 L 0 412.5 Z M 93.738281 318.738281 " fill-opacity="1" fill-rule="evenodd"/></g><g clip-path="url(#05e012ae0e)"><path fill="#407fc1" d="M 187.5 412.5 L 281.238281 318.738281 L 375 412.5 Z M 187.5 412.5 " fill-opacity="1" fill-rule="evenodd"/></g></svg>