<?xml version="1.0" encoding="UTF-8"?>
<svg id="Layer_2" xmlns="http://www.w3.org/2000/svg" viewBox="0 0 520 391.5">
  <defs>
    <style>
      .cls-1 {
        fill: #fff;
      }
    </style>
  </defs>
  <g id="Layer_1-2" data-name="Layer_1">
    <g>
      <polygon class="cls-1" points="189.95 192.62 102.69 55.1 67.74 0 3.94 0 126.15 192.62 0 391.5 63.8 391.5 98.75 336.4 158.05 242.9 189.95 192.62"/>
      <polygon class="cls-1" points="485.03 336.4 444.57 272.6 409.6 217.5 348.44 217.5 347.1 219.56 337.97 233.97 313.46 272.6 380.77 272.6 421.23 336.4 218.4 336.4 278.78 241.22 310.68 190.94 299.95 174 224.49 55.1 418.09 55.1 375.78 121.8 319.52 121.8 347.65 166.14 352.64 174 406.46 174 439.58 121.8 481.89 55.1 516.84 0 125.74 0 160.69 55.1 218.95 146.91 246.88 190.94 217.88 236.64 154.6 336.4 119.63 391.5 520 391.5 485.03 336.4"/>
    </g>
  </g>
</svg>