<svg xmlns="http://www.w3.org/2000/svg" xmlns:xlink="http://www.w3.org/1999/xlink" width="500" zoomAndPan="magnify" viewBox="0 0 375 525.000007" height="700" preserveAspectRatio="xMidYMid meet" version="1.0"><defs><clipPath id="ce3aae9e32"><path d="M 187 74.859375 L 374.640625 74.859375 L 374.640625 169 L 187 169 Z M 187 74.859375 " clip-rule="nonzero"/></clipPath><clipPath id="4eca3a071d"><path d="M 93 74.859375 L 282 74.859375 L 282 262 L 93 262 Z M 93 74.859375 " clip-rule="nonzero"/></clipPath><clipPath id="b6d525f045"><path d="M 0.355469 74.859375 L 188 74.859375 L 188 169 L 0.355469 169 Z M 0.355469 74.859375 " clip-rule="nonzero"/></clipPath><clipPath id="e682184e09"><path d="M 187 168 L 374.640625 168 L 374.640625 356 L 187 356 Z M 187 168 " clip-rule="nonzero"/></clipPath><clipPath id="bbd4187ebc"><path d="M 93 262 L 282 262 L 282 449.144531 L 93 449.144531 Z M 93 262 " clip-rule="nonzero"/></clipPath><clipPath id="5364deeb25"><path d="M 0.355469 355 L 188 355 L 188 449.144531 L 0.355469 449.144531 Z M 0.355469 355 " clip-rule="nonzero"/></clipPath><clipPath id="8a8f758018"><path d="M 187 355 L 374.640625 355 L 374.640625 449.144531 L 187 449.144531 Z M 187 355 " clip-rule="nonzero"/></clipPath></defs><g clip-path="url(#ce3aae9e32)"><path fill="#aadbcc" d="M 281.058594 168.417969 L 187.5 74.859375 L 374.644531 74.859375 Z M 281.058594 168.417969 " fill-opacity="1" fill-rule="evenodd"/></g><g clip-path="url(#4eca3a071d)"><path fill="#6aa7ac" d="M 187.5 74.859375 L 281.058594 168.417969 L 187.5 262 L 93.941406 168.417969 Z M 187.5 74.859375 " fill-opacity="1" fill-rule="evenodd"/></g><g clip-path="url(#b6d525f045)"><path fill="#77b7b1" d="M 187.5 74.859375 L 93.941406 168.417969 L 0.355469 74.859375 Z M 187.5 74.859375 " fill-opacity="1" fill-rule="evenodd"/></g><g clip-path="url(#e682184e09)"><path fill="#62a7cd" d="M 187.5 262 L 281.058594 168.417969 L 374.644531 262 L 281.058594 355.5625 Z M 187.5 262 " fill-opacity="1" fill-rule="evenodd"/></g><g clip-path="url(#bbd4187ebc)"><path fill="#1e8bbe" d="M 187.5 262 L 281.058594 355.5625 L 187.5 449.144531 L 93.917969 355.5625 Z M 187.5 262 " fill-opacity="1" fill-rule="evenodd"/></g><g clip-path="url(#5364deeb25)"><path fill="#4194cf" d="M 93.917969 355.5625 L 187.5 449.144531 L 0.355469 449.144531 Z M 93.917969 355.5625 " fill-opacity="1" fill-rule="evenodd"/></g><g clip-path="url(#8a8f758018)"><path fill="#407fc1" d="M 187.5 449.144531 L 281.058594 355.5625 L 374.644531 449.144531 Z M 187.5 449.144531 " fill-opacity="1" fill-rule="evenodd"/></g></svg>