<svg xmlns="http://www.w3.org/2000/svg" xmlns:xlink="http://www.w3.org/1999/xlink" width="500" zoomAndPan="magnify" viewBox="0 0 375 374.999991" height="500" preserveAspectRatio="xMidYMid meet" version="1.0"><defs><clipPath id="baf0abfed3"><path d="M 187.5 0 C 83.945312 0 0 83.945312 0 187.5 C 0 291.054688 83.945312 375 187.5 375 C 291.054688 375 375 291.054688 375 187.5 C 375 83.945312 291.054688 0 187.5 0 Z M 187.5 0 " clip-rule="nonzero"/></clipPath><clipPath id="bbf94d6aca"><path d="M 211 31 L 350 31 L 350 213 L 211 213 Z M 211 31 " clip-rule="nonzero"/></clipPath><clipPath id="7b072316b0"><path d="M 351.566406 192.9375 L 136.722656 343.765625 L 23.386719 182.328125 L 238.230469 31.5 Z M 351.566406 192.9375 " clip-rule="nonzero"/></clipPath><clipPath id="5f67e71f7c"><path d="M 351.566406 192.9375 L 136.722656 343.765625 L 23.386719 182.328125 L 238.230469 31.5 Z M 351.566406 192.9375 " clip-rule="nonzero"/></clipPath><clipPath id="d1cb8242ff"><path d="M 23 66 L 300 66 L 300 343 L 23 343 Z M 23 66 " clip-rule="nonzero"/></clipPath><clipPath id="008b512b46"><path d="M 351.566406 192.9375 L 136.722656 343.765625 L 23.386719 182.328125 L 238.230469 31.5 Z M 351.566406 192.9375 " clip-rule="nonzero"/></clipPath><clipPath id="2136c6e800"><path d="M 351.566406 192.9375 L 136.722656 343.765625 L 23.386719 182.328125 L 238.230469 31.5 Z M 351.566406 192.9375 " clip-rule="nonzero"/></clipPath></defs><g clip-path="url(#baf0abfed3)"><rect x="-37.5" width="450" fill="#212121" y="-37.499999" height="449.999989" fill-opacity="1"/></g><g clip-path="url(#bbf94d6aca)"><g clip-path="url(#7b072316b0)"><g clip-path="url(#5f67e71f7c)"><path fill="#ffffff" d="M 217.320312 168.488281 L 293.1875 199.96875 L 323.582031 212.585938 L 349.917969 194.097656 L 243.652344 150 L 238.09375 31.351562 L 211.757812 49.839844 L 213.296875 82.710938 L 215.914062 138.492188 Z M 217.320312 168.488281 " fill-opacity="1" fill-rule="nonzero"/></g></g></g><g clip-path="url(#d1cb8242ff)"><g clip-path="url(#008b512b46)"><g clip-path="url(#2136c6e800)"><path fill="#ffffff" d="M 53.851562 194.648438 L 89.039062 209.261719 L 119.441406 221.871094 L 144.6875 204.148438 L 144.644531 202.910156 L 144.238281 194.316406 L 143.160156 171.265625 L 115.375 190.773438 L 80.1875 176.160156 L 163.910156 117.386719 L 166.566406 174.171875 L 167.972656 204.167969 L 177.308594 208.050781 L 242.914062 235.265625 L 163 291.367188 L 161.132812 251.574219 L 184.355469 235.269531 L 159.898438 225.117188 L 155.558594 223.320312 L 133.34375 238.917969 L 134.800781 270.0625 L 136.664062 309.855469 L 138.203125 342.726562 L 299.640625 229.390625 L 269.246094 216.777344 L 218.59375 195.761719 L 194.304688 185.679688 L 193.035156 158.414062 L 190.246094 98.898438 L 188.714844 66.019531 L 23.449219 182.039062 Z M 53.851562 194.648438 " fill-opacity="1" fill-rule="nonzero"/></g></g></g></svg>