<?xml version="1.0" encoding="UTF-8"?>
<svg id="Layer_2" xmlns="http://www.w3.org/2000/svg" viewBox="0 0 1252 1252">
  <defs>
    <style>
      .cls-1 {
        fill: #aadbcc;
      }

      .cls-1, .cls-2, .cls-3, .cls-4, .cls-5, .cls-6, .cls-7 {
        fill-rule: evenodd;
      }

      .cls-2 {
        fill: #6aa7ac;
      }

      .cls-3 {
        fill: #62a7cd;
      }

      .cls-4 {
        fill: #407fc1;
      }

      .cls-5 {
        fill: #1e8bbe;
      }

      .cls-6 {
        fill: #4194cf;
      }

      .cls-7 {
        fill: #77b7b1;
      }
    </style>
  </defs>
  <g id="Layer_1-2" data-name="Layer_1">
    <polygon class="cls-1" points="938.96 312.96 626 0 1252 0 938.96 312.96"/>
    <polygon class="cls-2" points="626 0 938.96 312.96 626 626 313.04 312.96 626 0"/>
    <polygon class="cls-7" points="626 0 313.04 312.96 0 0 626 0"/>
    <polygon class="cls-3" points="626 626 938.96 312.96 1252 626 938.96 938.96 626 626"/>
    <polygon class="cls-5" points="626 626 938.96 938.96 626 1252 312.96 938.96 626 626"/>
    <polygon class="cls-6" points="312.96 938.96 626 1252 0 1252 312.96 938.96"/>
    <polygon class="cls-4" points="626 1252 938.96 938.96 1252 1252 626 1252"/>
  </g>
</svg>