<svg xmlns="http://www.w3.org/2000/svg" xmlns:xlink="http://www.w3.org/1999/xlink" width="500" zoomAndPan="magnify" viewBox="0 0 375 675.000002" height="900" preserveAspectRatio="xMidYMid meet" version="1.0"><defs><clipPath id="45a3212d19"><path d="M 187 149.777344 L 374.722656 149.777344 L 374.722656 244 L 187 244 Z M 187 149.777344 " clip-rule="nonzero"/></clipPath><clipPath id="eace3b74a1"><path d="M 93 149.777344 L 282 149.777344 L 282 337 L 93 337 Z M 93 149.777344 " clip-rule="nonzero"/></clipPath><clipPath id="248d5c619a"><path d="M 0.277344 149.777344 L 188 149.777344 L 188 244 L 0.277344 244 Z M 0.277344 149.777344 " clip-rule="nonzero"/></clipPath><clipPath id="f0e79892b3"><path d="M 187 243 L 374.722656 243 L 374.722656 431 L 187 431 Z M 187 243 " clip-rule="nonzero"/></clipPath><clipPath id="26b04e5a95"><path d="M 93 337 L 282 337 L 282 524.222656 L 93 524.222656 Z M 93 337 " clip-rule="nonzero"/></clipPath><clipPath id="11f7ce41ba"><path d="M 0.277344 430 L 188 430 L 188 524.222656 L 0.277344 524.222656 Z M 0.277344 430 " clip-rule="nonzero"/></clipPath><clipPath id="ff19eb7742"><path d="M 187 430 L 374.722656 430 L 374.722656 524.222656 L 187 524.222656 Z M 187 430 " clip-rule="nonzero"/></clipPath></defs><g clip-path="url(#45a3212d19)"><path fill="#63b4f6" d="M 281.097656 243.378906 L 187.5 149.777344 L 374.722656 149.777344 Z M 281.097656 243.378906 " fill-opacity="1" fill-rule="evenodd"/></g><g clip-path="url(#eace3b74a1)"><path fill="#1f94f3" d="M 187.5 149.777344 L 281.097656 243.378906 L 187.5 337 L 93.902344 243.378906 Z M 187.5 149.777344 " fill-opacity="1" fill-rule="evenodd"/></g><g clip-path="url(#248d5c619a)"><path fill="#40a4f5" d="M 187.5 149.777344 L 93.902344 243.378906 L 0.277344 149.777344 Z M 187.5 149.777344 " fill-opacity="1" fill-rule="evenodd"/></g><g clip-path="url(#f0e79892b3)"><path fill="#1d85e5" d="M 187.5 337 L 281.097656 243.378906 L 374.722656 337 L 281.097656 430.601562 Z M 187.5 337 " fill-opacity="1" fill-rule="evenodd"/></g><g clip-path="url(#26b04e5a95)"><path fill="#1763c0" d="M 187.5 337 L 281.097656 430.601562 L 187.5 524.222656 L 93.875 430.601562 Z M 187.5 337 " fill-opacity="1" fill-rule="evenodd"/></g><g clip-path="url(#11f7ce41ba)"><path fill="#1045a1" d="M 93.875 430.601562 L 187.5 524.222656 L 0.277344 524.222656 Z M 93.875 430.601562 " fill-opacity="1" fill-rule="evenodd"/></g><g clip-path="url(#ff19eb7742)"><path fill="#1d85e5" d="M 187.5 524.222656 L 281.097656 430.601562 L 374.722656 524.222656 Z M 187.5 524.222656 " fill-opacity="1" fill-rule="evenodd"/></g></svg>